<svg xmlns="http://www.w3.org/2000/svg" version="1.1" xmlns:xlink="http://www.w3.org/1999/xlink" xmlns:svgjs="http://svgjs.dev/svgjs" width="100%" height="100%" viewBox="0 0 1000 600"><rect width="1000" height="600" x="0" y="0" fill="#2f3c7e"/><g><circle r="166.66666666666666" cx="413.5446116129557" cy="435.76689950364823" fill="white" transform="matrix(0.5063229276176662,0,0,0.5063229276176661,0,79.36122139093095)"/><path d="M402.68820505002645 509.50861946274324L304.5122434762161 509.50861946274324L304.5122434762161 362.025207739344L320.1091995175994 362.025207739344L320.1091995175994 496.0185693031228L402.68820505002645 496.0185693031228L402.68820505002645 509.50861946274324ZM467.59261124099856 510.7669104754627L467.59261124099856 510.7669104754627Q451.14704033057194 510.7669104754627 436.0768107596293 505.41185802598216Q421.00658118868677 500.0275429948104 412.8130583151646 491.59991946775904L412.8130583151646 491.59991946775904L418.8996753069239 479.60226097438726Q426.7127846184611 487.18126963239524 439.8809463794789 492.3314840100378Q453.04910814049674 497.51096096937147 467.59261124099856 497.51096096937147L467.59261124099856 497.51096096937147Q481.4923375442951 497.51096096937147 490.2418494699492 494.0287137481245Q498.962098813912 490.54646652687757 503.0881228323643 484.63542502526514Q507.1848842691254 478.7536461053439 507.1848842691254 471.584313591012L507.1848842691254 471.584313591012Q507.1848842691254 462.95185199212256 502.23950796332093 457.68458728771543Q497.29413165751646 452.4173225833083 489.2761842741412 449.3447515057375Q481.28749947245706 446.30144300985785 471.572322350995 443.98969905625694Q461.8864078112242 441.67795510265603 452.2004932714533 439.04432275045247Q442.5145787316825 436.4106903982489 434.4088436032338 431.96277798119405Q426.2738458930939 427.5441281458303 421.3284695872894 420.28700788642493Q416.38309328148495 413.00062504532843 416.38309328148495 401.20780462379474L416.38309328148495 401.20780462379474Q416.38309328148495 390.2635990713044 422.1770844563328 381.10441100197426Q427.9710756311806 371.91596035095296 439.9687341245524 366.3560698296343Q451.99565519961527 360.7669167266245 470.7529700636428 360.7669167266245L470.7529700636428 360.7669167266245Q483.16030470069074 360.7669167266245 495.39206384759166 364.24916394787147Q507.6238229944927 367.70214858742725 516.4611226652202 373.81802816087776L516.4611226652202 373.81802816087776L511.19385796081303 386.25462537961675Q501.7127814928802 379.9339077343282 491.0612017573013 376.978386983522Q480.4388846034137 374.0228662327158 470.5188694101136 374.0228662327158L470.5188694101136 374.0228662327158Q457.2629199040224 374.0228662327158 448.63045830513295 377.6221637807273Q439.9687341245524 381.1921987470477 435.8719726877913 387.1910279937336Q431.7752112510302 393.2191198221106 431.7752112510302 400.79812848011863L431.7752112510302 400.79812848011863Q431.7752112510302 409.430590079008 436.72058755683463 414.69785478341515Q441.6659638626391 419.9651194878223 449.7716989910879 422.9206402386285Q457.8774341195366 425.8761609894347 467.59261124099856 428.1879049430356Q477.2785257807694 430.4996488966365 486.84738999377566 433.25033157560466Q496.4455167884731 435.9717516728817 504.55125191692184 440.30261376317196Q512.6569870453706 444.6042132717711 517.6316259328662 451.773545786103Q522.5770022386706 458.9428783004349 522.5770022386706 470.53086065013053L522.5770022386706 470.53086065013053Q522.5770022386706 481.27022813078287 516.6659607370582 490.429416200113Q510.7841818171369 499.6178668511343 498.6694729970005 505.1777573724529Q486.5547641768642 510.7669104754627 467.59261124099856 510.7669104754627Z " fill="#2f3c7e" transform="matrix(0.5063229276176662,0,0,0.5063229276176661,0,79.36122139093095)"/><path d="M738.2218751474545 479.67179802912494L663.5446226533252 479.67179802912494L663.5446226533252 367.4889805714761L675.4084007693821 367.4889805714761L675.4084007693821 469.4106315910345L738.2218751474545 469.4106315910345L738.2218751474545 479.67179802912494ZM819.1537648847584 479.67179802912494L808.2471020763758 479.67179802912494L808.2471020763758 461.08595426382004L807.7796736703023 458.0365403765784L807.7796736703023 426.94142212492454Q807.7796736703023 416.2128272807605 801.7698798779282 410.44787693918687Q795.7600860855541 404.66066810208594 783.8963079694972 404.66066810208594L783.8963079694972 404.66066810208594Q775.727440110974 404.66066810208594 768.359878091434 407.3984630519452Q760.9700575763667 410.1139995062772 755.8506036050851 414.6102156027941L755.8506036050851 414.6102156027941L750.7311496338034 406.10747031136117Q757.1415963456691 400.6541389071699 766.1117700431755 397.6937590020375Q775.081943740682 394.7333790969051 785.0092327458628 394.7333790969051L785.0092327458628 394.7333790969051Q801.3692269584366 394.7333790969051 810.2503666738338 402.83547146884644Q819.1537648847584 410.91530534526044 819.1537648847584 427.4311090265254L819.1537648847584 427.4311090265254L819.1537648847584 479.67179802912494ZM779.2442824042892 480.4731038681082L779.2442824042892 480.4731038681082Q769.7844218051819 480.4731038681082 762.8175127051335 477.3569144942846Q755.8506036050851 474.2184666249337 752.1556933475514 468.6983597341605Q748.483041585545 463.15599434786 748.483041585545 455.94424179701116L748.483041585545 455.94424179701116Q748.483041585545 449.37798561645434 751.5992309593686 444.0136881943723Q754.7376788287195 438.6493907722903 761.8603973974591 435.3551334342482Q768.9831159661987 432.0831345917335 781.0027035509468 432.0831345917335L781.0027035509468 432.0831345917335L810.0277817185607 432.0831345917335L810.0277817185607 440.56362138763905L781.3365809838565 440.56362138763905Q769.1611839304172 440.56362138763905 764.4201243830998 444.90402801546475Q759.7013233313099 449.22217614776315 759.7013233313099 455.6326228596288L759.7013233313099 455.6326228596288Q759.7013233313099 462.84437541047765 765.3104642041924 467.16252354277606Q770.9196050770748 471.50293017060176 781.0027035509468 471.50293017060176L781.0027035509468 471.50293017060176Q790.6183736187453 471.50293017060176 797.607541214321 467.0957480561941Q804.5744503143694 462.68856594178646 807.7796736703023 454.34163011904474L807.7796736703023 454.34163011904474L810.3394006559431 462.1988790401856Q807.1341773000103 470.54581486292733 799.2101528922874 475.5094593655177Q791.2638699890373 480.4731038681082 779.2442824042892 480.4731038681082ZM955.2199480432123 394.7333790969051L955.2199480432123 394.7333790969051Q965.4811144813027 394.7333790969051 973.0935199516432 398.65087430971187Q980.7059254219837 402.590628018046 984.9350395721729 410.60368640787806Q989.1864122178893 418.6167447977101 989.1864122178893 430.7921418511494L989.1864122178893 430.7921418511494L989.1864122178893 479.67179802912494L977.8123210034332 479.67179802912494L977.8123210034332 431.90506662751494Q977.8123210034332 418.6167447977101 971.4909082736767 411.80564516635286Q965.1472370483931 404.9945455349956 953.6173363652458 404.9945455349956L953.6173363652458 404.9945455349956Q944.9587816051217 404.9945455349956 938.6373688753654 408.60042181042Q932.2936976500816 412.2062980858445 928.8436308433484 419.01739771720173Q925.4158225321424 425.828497348559 925.4158225321424 435.44416741635746L925.4158225321424 435.44416741635746L925.4158225321424 479.67179802912494L914.0194728221591 479.67179802912494L914.0194728221591 431.90506662751494Q914.0194728221591 418.6167447977101 907.6090261102934 411.80564516635286Q901.1985793984277 404.9945455349956 889.6686787152805 404.9945455349956L889.6686787152805 404.9945455349956Q881.1659334238476 404.9945455349956 874.7554867119819 408.60042181042Q868.3450400001163 412.2062980858445 864.9172316889103 419.01739771720173Q861.467164882177 425.828497348559 861.467164882177 435.44416741635746L861.467164882177 435.44416741635746L861.467164882177 479.67179802912494L850.093073667721 479.67179802912494L850.093073667721 395.5346849358883L860.9774779805762 395.5346849358883L860.9774779805762 418.28286736480044L859.2190568339187 414.2763381698844Q863.0697765601435 405.1503550036868 871.6392973381584 399.94186705029597Q880.2088181161732 394.7333790969051 891.916786763539 394.7333790969051L891.916786763539 394.7333790969051Q904.2479932856694 394.7333790969051 912.9065480457934 400.89898235797034Q921.5651028059176 407.06458561903554 924.1248297915583 419.4180506366933L924.1248297915583 419.4180506366933L919.6286136950415 417.65962949003574Q923.3235239525752 407.3984630519452 932.6943505695732 401.0547918266615Q942.0651771865713 394.7333790969051 955.2199480432123 394.7333790969051ZM1063.552045774636 480.4731038681082L1063.552045774636 480.4731038681082Q1052.6453829662537 480.4731038681082 1043.8310187374384 475.42042538340854Q1035.016654508623 470.36774689870884 1029.8081665552322 460.8411108130196Q1024.5996786018416 451.3144747273304 1024.5996786018416 437.5142075003974L1024.5996786018416 437.5142075003974Q1024.5996786018416 423.7361987689917 1029.7413910686505 414.20956268330247Q1034.860845039932 404.66066810208594 1043.6752092687473 399.69702359949554Q1052.4895734975626 394.7333790969051 1063.552045774636 394.7333790969051L1063.552045774636 394.7333790969051Q1075.5716333593844 394.7333790969051 1085.0982694450736 400.0976765189871Q1094.64716402629 405.4619739410691 1100.1004954304813 415.16667799097684Q1105.5315683391455 424.87138204088455 1105.5315683391455 437.5142075003974L1105.5315683391455 437.5142075003974Q1105.5315683391455 450.3351009241287 1100.1004954304813 459.9507709919272Q1094.64716402629 469.56644105972566 1085.0982694450736 475.01977246391687Q1075.5716333593844 480.4731038681082 1063.552045774636 480.4731038681082ZM1031.499812215308 510.76691628077884L1020.1257210008519 510.76691628077884L1020.1257210008519 395.5346849358883L1031.0101253137072 395.5346849358883L1031.0101253137072 420.8648528459685L1029.8972005373416 437.6922754646159L1031.499812215308 454.6755075519544L1031.499812215308 510.76691628077884ZM1062.7507399356532 470.36774689870884L1062.7507399356532 470.36774689870884Q1071.7209136331594 470.36774689870884 1078.776856715317 466.2944422172109Q1085.8327997974748 462.1988790401856 1089.9951384610822 454.74228303853636Q1094.1574771246892 447.30794553241435 1094.1574771246892 437.5142075003974L1094.1574771246892 437.5142075003974Q1094.1574771246892 427.7427279639077 1089.9951384610822 420.3751659443677Q1085.8327997974748 413.00760392482766 1078.776856715317 408.84526526122045Q1071.7209136331594 404.66066810208594 1062.7507399356532 404.66066810208594L1062.7507399356532 404.66066810208594Q1053.7805662381465 404.66066810208594 1046.6355891738797 408.84526526122045Q1039.51287060514 413.00760392482766 1035.4173074281148 420.3751659443677Q1031.3440027466168 427.7427279639077 1031.3440027466168 437.5142075003974L1031.3440027466168 437.5142075003974Q1031.3440027466168 447.30794553241435 1035.4173074281148 454.74228303853636Q1039.51287060514 462.1988790401856 1046.6355891738797 466.2944422172109Q1053.7805662381465 470.36774689870884 1062.7507399356532 470.36774689870884ZM1162.1126639695706 480.62891333679937L1162.1126639695706 480.62891333679937Q1149.6033894832217 480.62891333679937 1138.1625227821837 476.5556086553014Q1126.6993975856185 472.46004547827613 1120.444760342444 466.04959876641044L1120.444760342444 466.04959876641044L1125.096785907652 456.9236156002128Q1131.0175457179166 462.68856594178646 1141.0338687052067 466.60606115459325Q1151.0501916924968 470.54581486292733 1162.1126639695706 470.54581486292733L1162.1126639695706 470.54581486292733Q1172.6854493450433 470.54581486292733 1179.3407395077095 467.8970538951773Q1185.9960296703757 465.24829292742726 1189.1122190441993 460.75207683091037Q1192.25066691355 456.2781192299208 1192.25066691355 450.8247878257296L1192.25066691355 450.8247878257296Q1192.25066691355 444.25853164517275 1188.466722673907 440.25200245025667Q1184.7050369297917 436.24547325534064 1178.6284676508358 433.908331224973Q1172.5296398763521 431.5934476901326 1165.1620778568122 429.835026543475Q1157.7945158372722 428.0766053968174 1150.404695322205 426.0733407993594Q1143.0371333026649 424.0700762019014 1136.8715300415997 420.68678488175004Q1130.7059267805344 417.32575205712607 1126.9442410364188 411.80564516635286Q1123.1602967967758 406.26327978005236 1123.1602967967758 397.29310608254593L1123.1602967967758 397.29310608254593Q1123.1602967967758 388.96842875533144 1127.5674789111836 382.00151965528306Q1131.974661025591 375.0123520597073 1141.1229026873161 370.78323790951816Q1150.2488858535137 366.5318652638017 1164.5165814865202 366.5318652638017L1164.5165814865202 366.5318652638017Q1173.9764420856277 366.5318652638017 1183.2582347205162 369.18062623155174Q1192.5622858509323 371.8071287037745 1199.2843515001805 376.45915426898256L1199.2843515001805 376.45915426898256L1195.2778223052644 385.91901486808985Q1188.0660697544156 381.1111798341906 1179.9862358780015 378.86307178593216Q1171.8841435060604 376.6149637376737 1164.360772017829 376.6149637376737L1164.360772017829 376.6149637376737Q1154.2554150484298 376.6149637376737 1147.689158867873 379.352758687533Q1141.1229026873161 382.068295141865 1137.9844548179651 386.6312867249638Q1134.8682654441416 391.2165368035899 1134.8682654441416 396.98148714516356L1134.8682654441416 396.98148714516356Q1134.8682654441416 403.5477433257204 1138.629951188257 407.5542725206364Q1142.3916369323729 411.56080171555243 1148.5794986889655 413.8089097638109Q1154.7451019500304 416.0570178120693 1162.1126639695706 417.81543895872693Q1169.4802259891107 419.5738601053845 1176.7810125220687 421.66615868495177Q1184.0595405594995 423.7361987689917 1190.2474023160921 427.0304561070338Q1196.4130055771575 430.3024549495485 1200.1746913212728 435.7557863537398Q1203.9363770653886 441.20911775793104 1203.9363770653886 450.02348198674633L1203.9363770653886 450.02348198674633Q1203.9363770653886 458.1923498452696 1199.4624194643989 465.159258945318Q1194.9662033678821 472.14842654089375 1185.7511862195752 476.3775406910829Q1176.5361690712684 480.62891333679937 1162.1126639695706 480.62891333679937ZM1253.9512165152569 480.4731038681082L1253.9512165152569 480.4731038681082Q1242.0874383992 480.4731038681082 1235.6769916873345 474.0626571562425Q1229.2665449754686 467.65221044437686 1229.2665449754686 455.94424179701116L1229.2665449754686 455.94424179701116L1229.2665449754686 376.9488411705834L1240.6406361899249 376.9488411705834L1240.6406361899249 455.3210039222464Q1240.6406361899249 462.68856594178646 1244.4023219340406 466.6950951367025Q1248.164007678156 470.7016243316185 1255.2199507603136 470.7016243316185L1255.2199507603136 470.7016243316185Q1262.7655807440724 470.7016243316185 1267.7292252466627 466.3612177037928L1267.7292252466627 466.3612177037928L1271.7357544415786 474.55234405784336Q1268.3747216169545 477.5794994495577 1263.6336620696375 479.02630165883295Q1258.9148610178472 480.4731038681082 1253.9512165152569 480.4731038681082ZM1266.2824230373874 404.9945455349956L1214.197543503479 404.9945455349956L1214.197543503479 395.5346849358883L1266.2824230373874 395.5346849358883L1266.2824230373874 404.9945455349956ZM1356.0286770035066 479.67179802912494L1345.122014195124 479.67179802912494L1345.122014195124 461.08595426382004L1344.6545857890505 458.0365403765784L1344.6545857890505 426.94142212492454Q1344.6545857890505 416.2128272807605 1338.6447919966763 410.44787693918687Q1332.6349982043025 404.66066810208594 1320.7712200882456 404.66066810208594L1320.7712200882456 404.66066810208594Q1312.6023522297223 404.66066810208594 1305.2347902101824 407.3984630519452Q1297.8449696951147 410.1139995062772 1292.7255157238333 414.6102156027941L1292.7255157238333 414.6102156027941L1287.6060617525516 406.10747031136117Q1294.0165084644173 400.6541389071699 1302.986682161924 397.6937590020375Q1311.95685585943 394.7333790969051 1321.8841448646112 394.7333790969051L1321.8841448646112 394.7333790969051Q1338.2441390771846 394.7333790969051 1347.1252787925819 402.83547146884644Q1356.0286770035066 410.91530534526044 1356.0286770035066 427.4311090265254L1356.0286770035066 427.4311090265254L1356.0286770035066 479.67179802912494ZM1316.1191945230373 480.4731038681082L1316.1191945230373 480.4731038681082Q1306.65933392393 480.4731038681082 1299.6924248238815 477.3569144942846Q1292.7255157238333 474.2184666249337 1289.0306054662997 468.6983597341605Q1285.3579537042933 463.15599434786 1285.3579537042933 455.94424179701116L1285.3579537042933 455.94424179701116Q1285.3579537042933 449.37798561645434 1288.4741430781169 444.0136881943723Q1291.6125909474677 438.6493907722903 1298.735309516207 435.3551334342482Q1305.858028084947 432.0831345917335 1317.877615669695 432.0831345917335L1317.877615669695 432.0831345917335L1346.902693837309 432.0831345917335L1346.902693837309 440.56362138763905L1318.2114931026047 440.56362138763905Q1306.0360960491653 440.56362138763905 1301.295036501848 444.90402801546475Q1296.576235450058 449.22217614776315 1296.576235450058 455.6326228596288L1296.576235450058 455.6326228596288Q1296.576235450058 462.84437541047765 1302.1853763229406 467.16252354277606Q1307.794517195823 471.50293017060176 1317.877615669695 471.50293017060176L1317.877615669695 471.50293017060176Q1327.4932857374934 471.50293017060176 1334.4824533330693 467.0957480561941Q1341.4493624331176 462.68856594178646 1344.6545857890505 454.34163011904474L1344.6545857890505 454.34163011904474L1347.2143127746913 462.1988790401856Q1344.0090894187583 470.54581486292733 1336.0850650110356 475.5094593655177Q1328.1387821077856 480.4731038681082 1316.1191945230373 480.4731038681082ZM1421.8915652688206 480.4731038681082L1421.8915652688206 480.4731038681082Q1409.4045492779992 480.4731038681082 1399.5440357594002 474.952996977335Q1389.6835222408013 469.4106315910345 1384.0743813679187 459.72818603665405Q1378.4652404950361 450.02348198674633 1378.4652404950361 437.5142075003974L1378.4652404950361 437.5142075003974Q1378.4652404950361 424.87138204088455 1384.0743813679187 415.25571197308614Q1389.6835222408013 405.64004190528766 1399.5440357594002 400.1867105010964Q1409.4045492779992 394.7333790969051 1421.8915652688206 394.7333790969051L1421.8915652688206 394.7333790969051Q1432.642418608512 394.7333790969051 1441.2787148731086 398.8957177605123Q1449.9372696332327 403.0580564241195 1454.9009141358233 411.40499224686124L1454.9009141358233 411.40499224686124L1446.4204273399178 417.1699425884349Q1442.080020712092 410.75949587656925 1435.6695740002265 407.7100819893276Q1429.2591272883606 404.66066810208594 1421.7357558001295 404.66066810208594L1421.7357558001295 404.66066810208594Q1412.7655821026228 404.66066810208594 1405.553829551774 408.7562312791112Q1398.3420770009252 412.8517944561365 1394.179738337318 420.21935647567653Q1389.9951411781835 427.58691849521654 1389.9951411781835 437.5142075003974L1389.9951411781835 437.5142075003974Q1389.9951411781835 447.46375500110554 1394.179738337318 454.8313170206456Q1398.3420770009252 462.1988790401856 1405.553829551774 466.2944422172109Q1412.7655821026228 470.36774689870884 1421.7357558001295 470.36774689870884L1421.7357558001295 470.36774689870884Q1429.2591272883606 470.36774689870884 1435.6695740002265 467.34059150699454Q1442.080020712092 464.2911776197529 1446.4204273399178 458.0365403765784L1446.4204273399178 458.0365403765784L1454.9009141358233 463.801490718152Q1449.9372696332327 471.97035857667527 1441.2787148731086 476.2217312223917Q1432.642418608512 480.4731038681082 1421.8915652688206 480.4731038681082ZM1508.1209769416246 436.40128272403183L1484.8831076111114 457.88073090788725L1485.194726548494 443.3014163374983L1537.613483515312 395.5346849358883L1551.547301715409 395.5346849358883L1514.53142365349 430.94795131984057L1508.1209769416246 436.40128272403183ZM1487.287025128061 479.67179802912494L1475.9129339136052 479.67179802912494L1475.9129339136052 360.76691492222807L1487.287025128061 360.76691492222807L1487.287025128061 479.67179802912494ZM1555.064144008724 479.67179802912494L1541.1303258086273 479.67179802912494L1506.0286783620572 435.91159582243097L1513.3962403815972 427.09723159361573L1555.064144008724 479.67179802912494ZM1574.940980514613 480.4731038681082L1574.940980514613 480.4731038681082Q1571.4241382212977 480.4731038681082 1568.931186722239 477.9133768824674Q1566.4604937187073 475.3536498968266 1566.4604937187073 471.6587396392929L1566.4604937187073 471.6587396392929Q1566.4604937187073 467.80801991306805 1568.931186722239 465.40410239611845Q1571.4241382212977 463.00018487916884 1574.940980514613 463.00018487916884L1574.940980514613 463.00018487916884Q1578.4800813034553 463.00018487916884 1580.9507743069871 465.40410239611845Q1583.443725806046 467.80801991306805 1583.443725806046 471.6587396392929L1583.443725806046 471.6587396392929Q1583.443725806046 475.3536498968266 1580.9507743069871 477.9133768824674Q1578.4800813034553 480.4731038681082 1574.940980514613 480.4731038681082ZM1619.1686111273807 479.67179802912494L1607.7945199129244 479.67179802912494L1607.7945199129244 395.5346849358883L1619.1686111273807 395.5346849358883L1619.1686111273807 479.67179802912494ZM1613.5594702544981 376.9488411705834L1613.5594702544981 376.9488411705834Q1610.042627961183 376.9488411705834 1607.6387104442333 374.54492365363376Q1605.2347929272837 372.14100613668415 1605.2347929272837 368.7799733120601L1605.2347929272837 368.7799733120601Q1605.2347929272837 365.3966819919088 1607.6387104442333 363.0817984570685Q1610.042627961183 360.76691492222807 1613.5594702544981 360.76691492222807L1613.5594702544981 360.76691492222807Q1617.0985710433406 360.76691492222807 1619.5024885602902 362.9927644749592Q1621.9064060772398 365.24087252321766 1621.9064060772398 368.60190534784164L1621.9064060772398 368.60190534784164Q1621.9064060772398 372.14100613668415 1619.5692640468724 374.54492365363376Q1617.2543805120317 376.9488411705834 1613.5594702544981 376.9488411705834ZM1685.2095673569129 480.4731038681082L1685.2095673569129 480.4731038681082Q1673.0341703034737 480.4731038681082 1663.3294662535661 474.952996977335Q1653.6247622036585 469.4106315910345 1648.015621330776 459.72818603665405Q1642.4064804578936 450.02348198674633 1642.4064804578936 437.5142075003974L1642.4064804578936 437.5142075003974Q1642.4064804578936 424.87138204088455 1648.015621330776 415.25571197308614Q1653.6247622036585 405.64004190528766 1663.240432271457 400.1867105010964Q1672.8561023392554 394.7333790969051 1685.2095673569129 394.7333790969051L1685.2095673569129 394.7333790969051Q1697.6965833477348 394.7333790969051 1707.4012873976426 400.1867105010964Q1717.1059914475504 405.64004190528766 1722.6260983383231 415.25571197308614Q1728.1462052290967 424.87138204088455 1728.1462052290967 437.5142075003974L1728.1462052290967 437.5142075003974Q1728.1462052290967 450.02348198674633 1722.6260983383231 459.72818603665405Q1717.1059914475504 469.4106315910345 1707.3122534155332 474.952996977335Q1697.5407738790436 480.4731038681082 1685.2095673569129 480.4731038681082ZM1685.2095673569129 470.36774689870884L1685.2095673569129 470.36774689870884Q1694.3355505231107 470.36774689870884 1701.3914936052684 466.2944422172109Q1708.447436687426 462.1988790401856 1712.520741368924 454.74228303853636Q1716.6163045459493 447.30794553241435 1716.6163045459493 437.5142075003974L1716.6163045459493 437.5142075003974Q1716.6163045459493 427.58691849521654 1712.520741368924 420.21935647567653Q1708.447436687426 412.8517944561365 1701.3914936052684 408.7562312791112Q1694.3355505231107 404.66066810208594 1685.365376825604 404.66066810208594L1685.365376825604 404.66066810208594Q1676.3952031280978 404.66066810208594 1669.3392600459401 408.7562312791112Q1662.2833169637825 412.8517944561365 1658.1209783001755 420.21935647567653Q1653.958639636568 427.58691849521654 1653.958639636568 437.5142075003974L1653.958639636568 437.5142075003974Q1653.958639636568 447.30794553241435 1658.1209783001755 454.74228303853636Q1662.2833169637825 462.1988790401856 1669.3392600459401 466.2944422172109Q1676.3952031280978 470.36774689870884 1685.2095673569129 470.36774689870884Z " fill="white" transform="matrix(0.5063229276176662,0,0,0.5063229276176661,0,79.36122139093095)"/></g></svg>